<svg width="163" height="540" viewBox="0 0 163 540" fill="none" xmlns="http://www.w3.org/2000/svg">
<style type="text/css">
#man {
  animation: leaf 1s ease-in-out infinite alternate;
  transform-origin: bottom;
}

@keyframes leaf {
  from {
    transform: rotateX(0deg);
  }
  to {
    transform: rotateX(10deg);
  }
}
</style>
<g id="man">
<path id="Vector" d="M135.137 225.814L147.942 260.888C147.942 260.888 134.58 300.971 147.942 302.085C161.303 303.198 162.973 263.671 162.973 263.671L155.736 221.361L135.137 225.814Z" fill="#FFB9B9"/>
<path id="Vector_2" d="M141.261 111.13L150.725 120.595V165.689C150.725 165.689 156.292 174.04 155.179 176.267C154.066 178.493 152.952 178.493 154.065 180.164C155.179 181.834 156.292 182.947 155.179 184.061C154.637 184.783 154.344 185.662 154.344 186.566C154.344 187.469 154.637 188.348 155.179 189.071C156.292 190.184 158.519 191.855 156.849 193.525C155.179 195.195 152.952 194.081 155.179 200.205C157.406 206.329 161.303 207.999 160.189 210.226C159.076 212.453 159.076 218.02 159.076 218.02L135.137 221.361L130.127 158.451L141.261 111.13Z" fill="#D0CDE1"/>
<path id="Vector_3" d="M160.189 217.464L132.353 218.577L133.467 230.268L157.963 225.814L160.189 217.464Z" fill="#3F3D56"/>
<path id="Vector_4" d="M83.641 52.953L80.3 86.357L114.26 91.367L116.765 72.16L119.271 52.953H83.641Z" fill="#FFB9B9"/>
<path id="Vector_5" opacity="0.1" d="M83.641 52.953L80.3 86.357L114.26 91.367L116.765 72.16L119.271 52.953H83.641Z" fill="black"/>
<path id="Vector_6" d="M49.4025 248.64L33.8144 273.136C33.8144 273.136 18.783 506.401 21.0099 504.73C23.2367 503.06 30.4741 502.503 33.2577 498.05C36.0412 493.596 53.2995 498.05 53.2995 498.05L63.3205 487.472V479.121C63.3205 477.451 83.3623 349.963 83.3623 349.963V382.252C83.3623 382.252 77.2384 500.833 87.2593 499.72C97.2802 498.606 117.879 491.926 117.879 491.926C117.879 491.926 147.385 270.352 138.477 262.001C129.57 253.65 125.673 234.722 125.673 234.722L49.4025 248.64Z" fill="#2F2E41"/>
<path id="Vector_7" d="M102.291 63.8094C117.049 63.8094 129.013 51.8454 129.013 37.087C129.013 22.3285 117.049 10.3645 102.291 10.3645C87.5323 10.3645 75.5682 22.3285 75.5682 37.087C75.5682 51.8454 87.5323 63.8094 102.291 63.8094Z" fill="#FFB9B9"/>
<g id="hand">
<path id="Vector_8" d="M9.87549 211.897L28.8039 252.537C28.8039 252.537 32.1442 271.465 37.1547 272.022C42.1651 272.579 47.1756 252.537 47.1756 252.537L40.495 241.959L32.7009 211.896L9.87549 211.897Z" fill="#FFB9B9"/>
<path id="Vector_9" d="M42.7219 91.6453L38.8248 89.4185C38.8248 89.4185 21.5666 101.11 15.9994 127.275C10.4322 153.441 6.53517 160.122 6.53517 160.122C6.53517 160.122 0.968033 161.235 4.86506 165.132C8.76209 169.029 8.76204 168.472 5.42176 170.699C2.08148 172.926 -0.145437 168.472 2.08143 172.926C4.3083 177.38 7.09193 176.267 4.86506 179.05C2.63819 181.834 -1.25887 181.834 0.968029 184.061C3.19493 186.287 -1.2588 191.298 1.52479 193.525C4.30838 195.752 5.42176 196.308 5.42176 200.205C5.40475 202.48 5.78143 204.74 6.53517 206.886H35.4846C35.4846 206.886 29.9173 196.308 31.5875 194.082C33.2577 191.855 33.8144 189.628 32.701 188.514C31.5876 187.401 28.2472 189.628 31.5875 186.844C34.9278 184.061 36.0413 185.731 34.9279 182.39C33.8144 179.05 31.5875 180.72 33.8144 179.05C36.0413 177.38 37.7114 177.937 36.598 176.267C35.4846 174.596 33.2577 174.596 35.4846 173.483C37.7114 172.369 39.3816 173.483 38.8249 170.699C38.2682 167.916 37.7115 169.029 38.8249 167.916C39.9383 166.802 51.6294 128.945 51.6294 127.832C51.6294 126.719 42.7219 91.6453 42.7219 91.6453Z" fill="#D0CDE1"/>
<path id="Vector_10" d="M37.155 204.659L2.08099 206.886L10.989 215.237L35.485 215.794L37.155 204.659Z" fill="#3F3D56"/>
</g>
<path id="Vector_11" d="M47.1756 246.413L39.9382 259.774C39.9382 259.774 61.6503 262.558 69.4443 265.341C77.2384 268.125 97.2803 272.022 97.2803 272.022L102.291 252.537L47.1756 246.413Z" fill="#3F3D56"/>
<path id="Vector_12" d="M110.641 252.537L116.765 270.909L141.261 265.898L138.477 248.64L110.641 252.537Z" fill="#3F3D56"/>
<path id="Vector_13" d="M120.662 72.7169C120.662 72.7169 118.992 71.6035 115.095 73.8304C111.198 76.0572 98.3937 77.1707 92.2698 70.4901C86.1459 63.8094 81.6921 58.2423 80.022 59.3557C78.3518 60.4691 77.2384 73.2737 77.2384 73.2737L71.6712 77.7274L38.8248 89.4185L41.6084 164.575L46.6189 181.834C46.6189 181.834 42.7219 195.195 47.7323 202.989C52.7427 210.783 44.9487 213.567 44.9487 213.567C44.9487 213.567 43.2786 215.794 44.392 221.361C45.5055 226.928 43.2786 247.527 43.2786 247.527C43.2786 247.527 90.5996 268.682 140.148 250.31L134.58 229.155L131.797 181.834C131.797 181.834 134.58 174.04 134.024 170.699C133.467 167.359 150.725 120.595 150.725 120.595C150.725 120.595 147.942 97.2126 133.467 92.2021C118.992 87.1916 116.765 82.1812 116.765 82.1812C116.765 82.1812 123.446 74.9438 120.662 72.7169Z" fill="#D0CDE1"/>
<path id="Vector_14" d="M75.3829 40.5102C75.3829 40.5102 72.6079 36.3477 73.6752 31.865C74.313 29.3199 74.5648 26.6935 74.4224 24.0737C75.6162 20.1903 77.1152 16.4074 78.905 12.7603C81.1464 8.70452 80.079 6.99684 87.1232 5.71607C94.1675 4.4353 91.2857 -4.74349 109.857 5.18243C110.483 6.05724 111.355 6.72685 112.362 7.10676C113.369 7.48666 114.465 7.55982 115.514 7.31702C119.356 6.56991 120.743 11.9065 120.743 11.9065C120.743 11.9065 123.305 10.4122 124.265 12.5468C125.226 14.6814 132.075 11.2657 132.075 25.6743C132.075 40.0829 124.281 52.9535 124.281 52.9535C124.281 52.9535 124.852 28.7165 112.152 26.2617C99.4506 23.8069 85.7891 16.6559 82.4805 25.8347C80.6945 30.9864 78.3125 35.9116 75.3829 40.5102Z" fill="#2F2E41"/>
<path id="Vector_15" d="M124.559 46.2728C125.943 46.2728 127.065 44.7773 127.065 42.9325C127.065 41.0877 125.943 39.5922 124.559 39.5922C123.176 39.5922 122.054 41.0877 122.054 42.9325C122.054 44.7773 123.176 46.2728 124.559 46.2728Z" fill="#FFB9B9"/>
<path id="Vector_16" d="M110.363 489.953L114.279 501.699C114.279 501.699 114.279 513.445 118.194 519.318C122.109 525.191 126.025 537.916 110.363 538.894C94.7021 539.873 87.8503 534 87.8503 534C87.8503 534 90.7868 526.17 87.8503 523.233C84.9138 520.297 87.8503 514.424 87.8503 514.424L90.7868 490.932L110.363 489.953Z" fill="#2F2E41"/>
<path id="Vector_17" d="M34.0933 489.953L30.178 501.699C30.178 501.699 30.178 513.445 26.2627 519.318C22.3474 525.191 18.4321 537.916 34.0933 538.894C49.7545 539.873 56.6063 534 56.6063 534C56.6063 534 53.6698 526.17 56.6063 523.233C59.5428 520.297 56.6063 514.424 56.6063 514.424L53.6698 490.932L34.0933 489.953Z" fill="#2F2E41"/>
</g>
</svg>
