<svg width="256" height="738" viewBox="0 0 256 738" fill="none" xmlns="http://www.w3.org/2000/svg">
<style type="text/css">
#woman {
  animation: leaf 1s ease-in-out infinite alternate;
  transform-origin: bottom;
}

@keyframes leaf {
  from {
    transform: rotateX(0deg);
  }
  to {
    transform: rotateX(10deg);
  }
}
</style>
<g id="woman">
<path id="Vector" d="M78.3637 648.043L81.4614 688.964C81.4614 688.964 58.7504 729.225 82.6722 728.624C106.594 728.024 108.485 725.508 108.485 725.508L108.501 712.918L108.534 685.85L101.66 644.294L78.3637 648.043Z" fill="#2F2E41"/>
<path id="Vector_2" d="M173.406 658.231C173.406 658.231 179.051 675.234 174.63 686.56C170.21 697.885 168.289 724.322 171.436 724.955C174.583 725.589 189.687 728.754 189.687 728.754C189.687 728.754 226.183 741.389 241.926 736.372C257.67 731.355 255.161 723.798 255.161 723.798C255.161 723.798 251.397 713.092 239.437 712.448C227.478 711.804 199.835 666.446 199.217 656.373C198.6 646.301 173.406 658.231 173.406 658.231Z" fill="#2F2E41"/>
<path id="Vector_3" d="M95.1065 135.965C126.049 135.965 151.132 110.882 151.132 79.9395C151.132 48.9975 126.049 23.9141 95.1065 23.9141C64.1645 23.9141 39.0811 48.9975 39.0811 79.9395C39.0811 110.882 64.1645 135.965 95.1065 135.965Z" fill="#FF6584"/>
<path id="Vector_4" d="M75.2333 116.112C75.2333 116.112 80.2356 143.816 65.1185 151.351C50.0013 158.887 93.4192 173.418 93.4192 173.418L112.31 168.405L124.302 142.61C124.302 142.61 109.196 141.333 113 118.676L75.2333 116.112Z" fill="#FFB9B9"/>
<path id="Vector_5" opacity="0.1" d="M75.2333 116.112C75.2333 116.112 80.2356 143.816 65.1185 151.351C50.0013 158.887 93.4192 173.418 93.4192 173.418L112.31 168.405L124.302 142.61C124.302 142.61 109.196 141.333 113 118.676L75.2333 116.112Z" fill="black"/>
<path id="Vector_6" d="M17.2045 210.466L15.872 270.897L0.0090332 374.115C0.0090332 374.115 0.573496 427.623 16.9366 430.791C33.2998 433.958 17.0063 373.506 17.0063 373.506L40.7362 288.087L45.5281 213.648L17.2045 210.466Z" fill="#FFB9B9"/>
<path id="Vector_7" d="M93.1996 130.927C113.016 130.927 129.081 114.862 129.081 95.0452C129.081 75.2284 113.016 59.1637 93.1996 59.1637C73.3828 59.1637 57.3181 75.2284 57.3181 95.0452C57.3181 114.862 73.3828 130.927 93.1996 130.927Z" fill="#FFB9B9"/>
<path id="Vector_8" d="M149.321 274.836C155.603 285.545 153.699 298.133 146.775 298.124C139.85 298.116 46.6984 286.671 46.6984 286.671L52.3898 265.275C52.3898 265.275 46.7351 256.455 50.519 250.795C54.3029 245.134 46.7703 227.499 46.7703 227.499L32.3752 158.866L39.9321 156.495L52.5206 152.551L66.3812 148.205C66.3812 148.205 75.8069 162.066 99.1037 157.688C99.1037 157.688 113.58 159.594 121.786 140.719C123.553 140.748 125.311 140.972 127.029 141.386C128.772 141.841 130.465 142.605 131.225 143.878C131.985 145.144 136.409 146.012 141.432 146.591C148.891 147.45 157.659 147.687 157.659 147.687L150.65 217.553C150.65 217.553 143.039 264.127 149.321 274.836Z" fill="#6C63FF"/>
<path id="Vector_9" d="M37.4113 158.872L32.3753 158.866C32.3753 158.866 12.2114 175.208 14.682 214.24C14.682 214.24 16.5659 218.019 31.0413 220.555C45.5167 223.091 51.8194 216.803 51.8194 216.803L37.4113 158.872Z" fill="#6C63FF"/>
<path id="Vector_10" d="M131.78 204.94C131.78 204.94 51.2106 199.806 51.8286 209.249C52.4466 218.692 46.755 240.088 49.2685 243.869C51.7819 247.649 54.8284 263.141 51.0839 270.185C48.8391 274.394 47.1544 278.878 46.0727 283.523C46.0727 283.523 41.0383 282.258 37.2421 297.991C33.446 313.724 14.506 359.025 22.0316 382.326C29.5573 405.626 53.9271 554.218 53.9271 554.218L70.1755 651.81C70.1755 651.81 97.2379 656.879 106.693 646.819L98.0189 532.239L91.8754 407.59C91.8754 407.59 133.905 528.506 140.195 532.29L165.849 660.739C165.849 660.739 194.793 670.847 204.885 654.492L193.039 560.682C193.039 560.682 186.137 542.418 188.666 532.979C191.196 523.539 184.279 516.606 184.279 516.606L158.631 383.751C158.631 383.751 151.096 368.633 157.405 357.31C163.713 345.987 146.15 294.346 146.15 294.346C146.15 294.346 134.851 267.894 138.647 252.79C142.442 237.687 131.78 204.94 131.78 204.94Z" fill="#2F2E41"/>
<path id="Vector_11" d="M176.485 196.181L188.989 267.33C188.989 267.33 190.864 278.034 185.177 295.653C179.491 313.272 157.407 355.422 157.407 355.422L146.1 335.264L165.063 271.078L149.417 196.148L176.485 196.181Z" fill="#FFB9B9"/>
<path id="Vector_12" d="M64.4229 205.487L52.6949 211.472L39.9099 174.612L39.9319 156.495L52.5209 152.551L54.3969 167.705L64.4229 205.487Z" fill="#2F2E41"/>
<path id="Vector_13" d="M141.432 146.591L131.148 207.142L114.781 207.122L127.029 141.386C128.772 141.841 130.465 142.605 131.225 143.878C131.985 145.144 136.409 146.012 141.432 146.591Z" fill="#2F2E41"/>
<path id="Vector_14" d="M150.101 151.455L157.659 147.687C157.659 147.687 189.717 186.125 180.255 201.851C170.794 217.577 143.108 207.472 143.108 207.472L150.101 151.455Z" fill="#6C63FF"/>
<path id="Vector_15" d="M100.84 47.842C114.051 47.842 124.761 37.1322 124.761 23.921C124.761 10.7098 114.051 0 100.84 0C87.629 0 76.9192 10.7098 76.9192 23.921C76.9192 37.1322 87.629 47.842 100.84 47.842Z" fill="#FF6584"/>
<path id="Vector_16" d="M124.089 59.2012C124.101 49.119 110.301 40.929 93.2656 40.9083C76.2301 40.8875 62.4102 49.044 62.3979 59.1262C62.3857 69.2085 76.1857 77.3985 93.2212 77.4192C110.257 77.4399 124.077 69.2835 124.089 59.2012Z" fill="#FF6584"/>
<path id="Vector_17" d="M58.4349 215.237C60.1732 215.237 61.5823 213.828 61.5823 212.09C61.5823 210.352 60.1732 208.942 58.4349 208.942C56.6966 208.942 55.2874 210.352 55.2874 212.09C55.2874 213.828 56.6966 215.237 58.4349 215.237Z" fill="#6C63FF"/>
<path id="Vector_18" d="M125.791 215.319C127.53 215.319 128.939 213.91 128.939 212.172C128.939 210.434 127.53 209.024 125.791 209.024C124.053 209.024 122.644 210.434 122.644 212.172C122.644 213.91 124.053 215.319 125.791 215.319Z" fill="#6C63FF"/>
</g>
</svg>
